<?xml version="1.0" encoding="UTF-8" standalone="no"?>
<!-- Created with Inkscape (http://www.inkscape.org/) -->

<svg
   xmlns:dc="http://purl.org/dc/elements/1.1/"
   xmlns:cc="http://creativecommons.org/ns#"
   xmlns:rdf="http://www.w3.org/1999/02/22-rdf-syntax-ns#"
   xmlns:svg="http://www.w3.org/2000/svg"
   xmlns="http://www.w3.org/2000/svg"
   xmlns:sodipodi="http://sodipodi.sourceforge.net/DTD/sodipodi-0.dtd"
   xmlns:inkscape="http://www.inkscape.org/namespaces/inkscape"
   id="svg3355"
   version="1.1"
   inkscape:version="0.91 r13725"
   xml:space="preserve"
   width="765"
   height="990"
   viewBox="0 0 765 990"
   sodipodi:docname="big_logo.svg"><metadata
     id="metadata3361"><rdf:RDF><cc:Work
         rdf:about=""><dc:format>image/svg+xml</dc:format><dc:type
           rdf:resource="http://purl.org/dc/dcmitype/StillImage" /><dc:title></dc:title></cc:Work></rdf:RDF></metadata><defs
     id="defs3359"><clipPath
       clipPathUnits="userSpaceOnUse"
       id="clipPath3377"><path
         d="M 0,792 612,792 612,0 0,0 0,792 Z"
         id="path3379"
         inkscape:connector-curvature="0" /></clipPath></defs><sodipodi:namedview
     pagecolor="#ffffff"
     bordercolor="#666666"
     borderopacity="1"
     objecttolerance="10"
     gridtolerance="10"
     guidetolerance="10"
     inkscape:pageopacity="0"
     inkscape:pageshadow="2"
     inkscape:window-width="1150"
     inkscape:window-height="729"
     id="namedview3357"
     showgrid="false"
     inkscape:zoom="0.58585859"
     inkscape:cx="382.5"
     inkscape:cy="631.55172"
     inkscape:window-x="271"
     inkscape:window-y="1022"
     inkscape:window-maximized="0"
     inkscape:current-layer="g3363" /><g
     id="g3363"
     inkscape:groupmode="layer"
     inkscape:label="2013-03-28_zeroVM_logo_final"
     transform="matrix(1.25,0,0,-1.25,0,990)"><g
       id="g3365"
       transform="translate(126.4561,319.7627)"><path
         d="m 0,0 43.7,66.573 -39.187,0 0,2.876 44.42,0 0,-0.308 -43.7,-66.578 45.137,0 0,-2.872 L 0,-0.309 0,0 Z"
         style="fill:#90a1b0;fill-opacity:1;fill-rule:nonzero;stroke:none"
         id="path3367"
         inkscape:connector-curvature="0" /></g><g
       id="g3369"
       transform="translate(190.8721,389.2119)"><path
         d="m 0,0 40.215,0 0,-2.872 -36.934,0 0,-39.7 33.137,0 0,-2.872 -33.137,0 0,-21.443 38.371,0 0,-2.871 L 0,-69.758 0,0 Z"
         style="fill:#90a1b0;fill-opacity:1;fill-rule:nonzero;stroke:none"
         id="path3371"
         inkscape:connector-curvature="0" /></g><g
       id="g3373"><g
         id="g3375"
         clip-path="url(#clipPath3377)"><g
           id="g3381"
           transform="translate(260.7246,340.4824)"><path
             d="M 0,0 C 17.852,0 25.033,10.261 25.033,22.88 25.033,35.498 17.647,45.857 0,45.857 l -9.437,0 L -9.437,0 0,0 Z m 26.161,-21.028 -4.101,0 L 6.463,-2.459 C 4.617,-2.665 2.564,-2.871 0.409,-2.871 l -9.846,0 0,-18.157 -3.283,0 0,69.757 13.129,0 c 18.672,0 27.903,-11.591 27.903,-25.849 0,-11.594 -6.153,-21.34 -18.362,-24.624 l 16.211,-19.284 z"
             style="fill:#90a1b0;fill-opacity:1;fill-rule:nonzero;stroke:none"
             id="path3383"
             inkscape:connector-curvature="0" /></g><g
           id="g3385"
           transform="translate(367.8184,354.333)"><path
             d="m 0,0 c 0,18.772 -13.849,32.725 -32.318,32.725 -18.463,0 -32.31,-13.953 -32.31,-32.725 0,-18.774 13.847,-32.723 32.31,-32.723 C -13.849,-32.723 0,-18.774 0,0 m -68.016,0 c 0,20.62 16.004,35.701 35.698,35.701 19.699,0 35.702,-15.081 35.702,-35.701 0,-20.621 -16.003,-35.699 -35.702,-35.699 -19.694,0 -35.698,15.078 -35.698,35.699"
             style="fill:#90a1b0;fill-opacity:1;fill-rule:nonzero;stroke:none"
             id="path3387"
             inkscape:connector-curvature="0" /></g><g
           id="g3389"
           transform="translate(373.874,389.2119)"><path
             d="M 0,0 11.59,0 31.495,-46.883 50.781,0 61.86,0 31.697,-70.783 l -0.614,0 L 0,0 Z"
             style="fill:#90a1b0;fill-opacity:1;fill-rule:nonzero;stroke:none"
             id="path3391"
             inkscape:connector-curvature="0" /></g><g
           id="g3393"
           transform="translate(445.4678,390.6475)"><path
             d="M 0,0 0.513,0 34.572,-39.291 68.222,0 l 0.511,0 0,-71.193 -10.361,0 0,45.241 -23.8,-28.418 -0.513,0 -23.697,28.418 0,-45.241 L 0,-71.193 0,0 Z"
             style="fill:#90a1b0;fill-opacity:1;fill-rule:nonzero;stroke:none"
             id="path3395"
             inkscape:connector-curvature="0" /></g><g
           id="g3397"
           transform="translate(389.7383,466.123)"><path
             d="M 0,0 C -2.2,0 -3.973,1.782 -3.973,3.97 -3.973,6.16 -2.2,7.942 0,7.942 2.192,7.942 3.963,6.16 3.963,3.97 3.963,1.782 2.192,0 0,0 M 19.786,0.26 C 14.456,4.822 9.449,9.891 3.03,12.648 c -1.259,0.547 -2.568,0.999 -3.955,1.344 -7.341,1.808 -14.662,3.005 -21.857,5.162 -1.891,0.57 -3.795,1.195 -5.667,1.919 -5.173,2.038 -10.13,4.573 -14.692,7.773 -0.861,0.6 -1.694,1.231 -2.532,1.865 -2.946,2.232 -5.676,5.277 -7.754,8.319 -8.312,12.162 -9.594,28.196 -6.764,42.256 0.943,4.688 1.614,9.763 -1.274,13.937 -2.589,3.747 -7.148,6.121 -11.201,7.901 -5.305,2.331 -10.671,4.562 -16.026,6.773 -2.703,1.113 -5.415,2.192 -8.133,3.28 -18.834,-3.239 -26.45,-16.941 -28.307,-30.811 l 29.944,-6.083 -30.286,3.283 c -2.619,-23.544 0.93,-50.485 15.26,-80.16 2.045,-2.063 4.213,-4.027 6.537,-5.864 4.395,0.303 33.891,8.606 33.891,8.606 l -50.485,-19.311 -77.298,-26.486 33.162,-8.041 23.537,10.337 c 14.846,-0.29 29.678,-0.85 44.529,-1.179 13.475,-0.296 27.011,-0.11 40.202,3 7.035,1.669 14.073,4.156 20.544,7.404 3.578,1.791 6.988,3.861 10.299,6.11 6.259,4.259 11.802,8.73 18.693,11.975 6.961,3.272 14.323,5.239 22.041,5.522 2.67,0.098 5.354,-0.019 8.011,-0.352 1.418,-0.191 2.836,-0.436 4.234,-0.71 1.055,-0.195 3.454,-0.263 4.297,-0.91 -4.026,3.644 -8.078,7.252 -12.194,10.753"
             style="fill:#adbec7;fill-opacity:1;fill-rule:nonzero;stroke:none"
             id="path3399"
             inkscape:connector-curvature="0" /></g><g
           id="g3401"
           transform="translate(361.2891,487.1982)"><path
             d="m 0,0 c 1.872,-0.727 3.776,-1.352 5.667,-1.921 4.753,7.773 14.975,17.895 36.816,27.782 0,0 -13.895,4.57 -59.707,-16.225 0.838,-0.633 1.671,-1.265 2.533,-1.866 C -10.13,4.571 -5.173,2.036 0,0"
             style="fill:#90a1b0;fill-opacity:1;fill-rule:nonzero;stroke:none"
             id="path3403"
             inkscape:connector-curvature="0" /></g><g
           id="g3405"
           transform="translate(264.2646,545.6885)"><path
             d="m 0,0 -17.66,1.914 c 0.527,-12.261 4.115,-47.29 27.175,-75.601 1.789,-2.193 3.686,-4.344 5.717,-6.445 0.006,-0.014 0.016,-0.022 0.032,-0.039 0,0.005 -0.007,0.005 -0.007,0.012 C 0.93,-50.484 -2.619,-23.543 0,0"
             style="fill:#90a1b0;fill-opacity:1;fill-rule:nonzero;stroke:none"
             id="path3407"
             inkscape:connector-curvature="0" /></g><g
           id="g3409"
           transform="translate(292.9131,579.2998)"><path
             d="m 0,0 c 0.007,0 0.02,0.005 0.029,0.005 0.006,0 -17.355,7.031 -17.355,7.035 -44.049,18.984 -102.835,39.494 -149.717,24.87 l 120.402,-58.993 18.334,-3.728 C -26.45,-16.94 -18.834,-3.238 0,0"
             style="fill:#90a1b0;fill-opacity:1;fill-rule:nonzero;stroke:none"
             id="path3411"
             inkscape:connector-curvature="0" /></g><g
           id="g3413"
           transform="translate(389.7383,474.0654)"><path
             d="m 0,0 c -2.2,0 -3.973,-1.782 -3.973,-3.973 0,-2.188 1.773,-3.969 3.973,-3.969 2.192,0 3.963,1.781 3.963,3.969 C 3.963,-1.782 2.192,0 0,0"
             style="fill:#90a1b0;fill-opacity:1;fill-rule:nonzero;stroke:none"
             id="path3415"
             inkscape:connector-curvature="0" /></g></g></g></g></svg>